<svg width="110" height="110" viewBox="0 0 110 110" fill="none" xmlns="http://www.w3.org/2000/svg">
<rect width="110" height="110" rx="10" fill="#006B20"/>
<path d="M36.1004 76.2477C34.9454 76.2477 33.9566 75.8232 33.1341 74.9742C32.3116 74.1253 31.9004 73.1047 31.9004 71.9125V45.9018C31.9004 44.7097 32.3116 43.6891 33.1341 42.8402C33.9566 41.9912 34.9454 41.5667 36.1004 41.5667H42.7154L46.6004 37.2316H59.2004V41.5667H48.4379L44.6054 45.9018H36.1004V71.9125H69.7004V52.4045H73.9004V71.9125C73.9004 73.1047 73.4891 74.1253 72.6666 74.9742C71.8441 75.8232 70.8554 76.2477 69.7004 76.2477H36.1004ZM69.7004 45.9018V41.5667H65.5004V37.2316H69.7004V32.8965H73.9004V37.2316H78.1004V41.5667H73.9004V45.9018H69.7004ZM52.9004 68.6612C55.5254 68.6612 57.7566 67.7129 59.5941 65.8163C61.4316 63.9197 62.3504 61.6166 62.3504 58.9072C62.3504 56.1977 61.4316 53.8947 59.5941 51.9981C57.7566 50.1015 55.5254 49.1532 52.9004 49.1532C50.2754 49.1532 48.0441 50.1015 46.2066 51.9981C44.3691 53.8947 43.4504 56.1977 43.4504 58.9072C43.4504 61.6166 44.3691 63.9197 46.2066 65.8163C48.0441 67.7129 50.2754 68.6612 52.9004 68.6612ZM52.9004 64.3261C51.4304 64.3261 50.1879 63.8023 49.1729 62.7546C48.1579 61.707 47.6504 60.4245 47.6504 58.9072C47.6504 57.3899 48.1579 56.1074 49.1729 55.0598C50.1879 54.0121 51.4304 53.4883 52.9004 53.4883C54.3704 53.4883 55.6129 54.0121 56.6279 55.0598C57.6429 56.1074 58.1504 57.3899 58.1504 58.9072C58.1504 60.4245 57.6429 61.707 56.6279 62.7546C55.6129 63.8023 54.3704 64.3261 52.9004 64.3261Z" fill="white"/>
</svg>
