<svg width="18" height="10" viewBox="0 0 18 10" fill="none" xmlns="http://www.w3.org/2000/svg">
<path d="M4.90909 10C3.54545 10 2.38636 9.51389 1.43182 8.54167C0.477273 7.56944 0 6.38889 0 5C0 3.61111 0.477273 2.43056 1.43182 1.45833C2.38636 0.486111 3.54545 0 4.90909 0C5.80909 0 6.63409 0.229167 7.38409 0.6875C8.13409 1.14583 8.72727 1.75 9.16364 2.5H18V7.5H16.3636V10H11.4545V7.5H9.16364C8.72727 8.25 8.13409 8.85417 7.38409 9.3125C6.63409 9.77083 5.80909 10 4.90909 10ZM4.90909 8.33333C5.80909 8.33333 6.53182 8.05208 7.07727 7.48958C7.62273 6.92708 7.95 6.375 8.05909 5.83333H13.0909V8.33333H14.7273V5.83333H16.3636V4.16667H8.05909C7.95 3.625 7.62273 3.07292 7.07727 2.51042C6.53182 1.94792 5.80909 1.66667 4.90909 1.66667C4.00909 1.66667 3.23864 1.99306 2.59773 2.64583C1.95682 3.29861 1.63636 4.08333 1.63636 5C1.63636 5.91667 1.95682 6.70139 2.59773 7.35417C3.23864 8.00694 4.00909 8.33333 4.90909 8.33333ZM4.90909 6.66667C5.35909 6.66667 5.74432 6.50347 6.06477 6.17708C6.38523 5.85069 6.54545 5.45833 6.54545 5C6.54545 4.54167 6.38523 4.14931 6.06477 3.82292C5.74432 3.49653 5.35909 3.33333 4.90909 3.33333C4.45909 3.33333 4.07386 3.49653 3.75341 3.82292C3.43295 4.14931 3.27273 4.54167 3.27273 5C3.27273 5.45833 3.43295 5.85069 3.75341 6.17708C4.07386 6.50347 4.45909 6.66667 4.90909 6.66667Z" fill="#006B20"/>
</svg>
